<?xml version="1.0" standalone="no"?>
<!DOCTYPE svg PUBLIC "-//W3C//DTD SVG 20010904//EN"
 "http://www.w3.org/TR/2001/REC-SVG-20010904/DTD/svg10.dtd">
<svg version="1.0" xmlns="http://www.w3.org/2000/svg"
 width="100.000000pt" height="100.000000pt" viewBox="0 0 100.000000 100.000000"
 preserveAspectRatio="xMidYMid meet">
<metadata>
Created by potrace 1.14, written by Peter Selinger 2001-2017
</metadata>
<g transform="translate(0.000000,100.000000) scale(0.100000,-0.100000)"
fill="#000000" stroke="none">
<path d="M345 935 c-19 -20 -25 -36 -25 -70 l0 -45 -95 0 c-103 0 -132 -9
-175 -55 l-25 -27 0 -346 0 -347 475 0 475 0 2 337 c2 333 2 336 -20 370 -35
52 -78 68 -184 68 l-93 0 0 33 c-1 93 -26 107 -189 107 -115 0 -121 -1 -146
-25z m283 -27 c7 -7 12 -29 12 -50 l0 -38 -140 0 -140 0 0 38 c0 21 5 43 12
50 17 17 239 17 256 0z m-98 -258 c0 -5 8 -10 18 -10 24 0 60 -34 68 -63 10
-44 -4 -125 -31 -175 -35 -64 -28 -87 33 -113 57 -25 82 -46 82 -71 0 -17 -12
-18 -200 -18 -211 0 -218 2 -186 45 7 10 38 30 67 44 63 30 72 53 39 106 -12
19 -18 35 -15 35 4 0 1 7 -6 17 -17 20 -20 95 -7 141 6 20 22 41 42 53 33 20
96 26 96 9z"/>
</g>
</svg>
